<svg width="137" height="137" viewBox="0 0 137 137" fill="none" xmlns="http://www.w3.org/2000/svg">
<path d="M115.662 95.6406C120.976 95.6407 126.074 97.751 129.831 101.51H129.832C137.651 109.33 137.651 122.027 129.832 129.847L129.831 129.848C122.011 137.666 109.314 137.666 101.494 129.848V129.847C97.7353 126.089 95.625 120.991 95.625 115.679C95.625 114.532 96.5536 113.604 97.7002 113.604H113.587V97.7158C113.587 96.5693 114.516 95.6406 115.662 95.6406ZM117.737 115.679C117.737 116.825 116.808 117.754 115.662 117.754H99.9121C100.366 121.201 101.943 124.426 104.428 126.911C110.629 133.111 120.695 133.111 126.896 126.912C133.095 120.711 133.095 110.645 126.896 104.443C124.41 101.958 121.185 100.382 117.737 99.9277V115.679Z" fill="white"/>
<path d="M106.715 68.4023C107.325 68.016 108.115 67.9785 108.763 68.3232C109.41 68.668 109.855 69.337 109.862 70.0976L111.395 109.392C111.43 109.947 111.172 110.506 110.767 110.92C110.39 111.304 109.807 111.544 109.251 111.52L69.956 109.979C69.2241 109.958 68.5763 109.554 68.2186 108.914C67.8611 108.274 67.8827 107.484 68.2567 106.865C77.6107 90.9374 90.5979 78.2803 106.715 68.4023ZM106.646 94.0351C101.916 96.8625 97.805 101.21 94.1161 106.759L107.159 107.268L106.646 94.0351ZM106.227 83.2617C96.7056 89.3845 89.0929 97.1292 83.1737 106.332L89.3144 106.571C89.3471 106.503 89.3837 106.435 89.4247 106.369C94.2639 98.5355 99.9133 92.7126 106.466 89.3984L106.227 83.2617ZM105.86 73.8252C92.716 82.3856 81.8464 93.0021 73.663 105.962L78.6503 106.156C78.6755 105.833 78.7766 105.511 78.9608 105.215C85.4996 94.6422 94.1044 85.8629 105.1 79.0801C105.398 78.8866 105.725 78.7832 106.053 78.7607L105.86 73.8252Z" fill="white"/>
<path d="M5.8656 5.86372C13.6855 -1.95449 26.3821 -1.95465 34.2006 5.86372C37.9606 9.62249 40.0706 14.7201 40.0707 20.0327C40.0707 21.1793 39.1421 22.1079 37.9955 22.1079H22.1078V37.9956C22.1078 39.1421 21.1792 40.0708 20.0326 40.0708C14.72 40.0707 9.62306 37.9603 5.8656 34.2016H5.86364C-1.95456 26.3818 -1.95453 13.6855 5.86364 5.86567L5.8656 5.86372ZM31.267 8.79927C25.0671 2.60071 15.0003 2.60071 8.79919 8.79927C2.60067 15.0004 2.60043 25.0669 8.80017 31.268C11.2853 33.7531 14.5099 35.3306 17.9574 35.7846V20.0327C17.9575 18.8863 18.8862 17.9576 20.0326 17.9575H35.7845C35.3306 14.51 33.7533 11.2853 31.267 8.80024V8.79927Z" fill="white"/>
<path d="M65.3705 25.5587C66.1156 25.5942 66.7737 25.9875 67.0981 26.6535C67.4776 27.3201 67.4699 28.0931 67.0492 28.7238C57.1869 44.8288 44.5405 57.8124 28.5912 67.1984C27.9525 67.5504 27.179 67.5425 26.5199 67.2042C25.9162 66.8665 25.4822 66.1989 25.4623 65.4533L23.9438 26.1701C23.9224 25.5901 24.1489 25.0403 24.5121 24.63C24.9306 24.2203 25.485 24.0055 26.0922 24.0119L65.3705 25.5587ZM56.9692 29.3947C56.9499 29.7225 56.8522 30.0496 56.6684 30.3488C49.8701 41.3223 41.0535 49.9555 30.519 56.4992C30.1381 56.7399 29.705 56.8339 29.2826 56.7999L29.477 61.7951C42.4592 53.5653 53.0672 42.6873 61.6 29.5783L56.9692 29.3947ZM46.4047 28.9777C46.3715 29.1377 46.3216 29.2965 46.2494 29.4494C42.9214 36.0414 37.0913 41.6408 29.2807 46.5011C29.1539 46.5767 29.0225 46.6372 28.8891 46.6847L29.1157 52.5089C38.4504 46.5391 46.3063 38.8607 52.4789 29.2169L46.4047 28.9777ZM28.7055 41.9347C34.5247 38.1121 39.0608 33.7815 41.8696 28.799L28.1742 28.2589L28.7055 41.9347Z" fill="white"/>
<path d="M101.839 5.86384C109.659 -1.95455 122.356 -1.95467 130.176 5.86384L130.177 5.86579C137.995 13.6856 137.995 26.3819 130.177 34.2017H130.176C126.418 37.9605 121.321 40.0708 116.007 40.0709C114.86 40.0709 113.931 39.1423 113.931 37.9957V22.108H98.0449C96.8984 22.1079 95.9697 21.1793 95.9697 20.0328C95.9698 14.7203 98.0802 9.62325 101.839 5.86579V5.86384ZM127.241 8.79939C121.04 2.60091 110.974 2.60055 104.772 8.80036C102.287 11.2854 100.711 14.5102 100.257 17.9576H116.007C117.153 17.9578 118.082 18.8865 118.082 20.0328V35.7847C121.529 35.3307 124.755 33.7532 127.24 31.2681C133.44 25.067 133.44 15.0005 127.241 8.79939Z" fill="white"/>
<path d="M109.59 24.137C110.18 24.0871 110.736 24.3017 111.142 24.72C111.548 25.1382 111.775 25.6719 111.736 26.2893L110.223 65.5569C110.183 66.2921 109.761 66.9338 109.137 67.3069C108.485 67.6501 107.66 67.6372 107.048 67.2454C90.9236 57.3748 77.961 44.7267 68.5806 28.7786C68.2075 28.1548 68.2193 27.3898 68.5533 26.718C68.9162 26.0762 69.5693 25.6739 70.3052 25.6555L109.59 24.137ZM74.0122 29.6565C82.2017 42.6431 93.0762 53.2574 106.219 61.7874L106.396 57.2395C106.047 57.2279 105.698 57.1333 105.384 56.9466C94.4224 50.1274 85.7859 41.342 79.2662 30.7942C78.9945 30.3856 78.8974 29.9144 78.9527 29.4622L74.0122 29.6565ZM83.2046 29.2952C89.1742 38.6794 96.8541 46.5629 106.57 52.7776L106.815 46.5061C100.257 43.1948 94.6172 37.3762 89.8003 29.5452C89.7019 29.3851 89.6287 29.2171 89.5767 29.0462L83.2046 29.2952ZM94.2701 28.8626C97.9856 34.5491 102.18 39.0243 106.996 41.8831L107.525 28.344L94.2701 28.8626Z" fill="white"/>
<path d="M20.0328 96.1875C21.1794 96.1875 22.108 97.1161 22.108 98.2627V114.15H37.9957C39.1423 114.15 40.0709 115.079 40.0709 116.226C40.0708 121.538 37.9609 126.636 34.2008 130.395C26.3823 138.213 13.6857 138.213 5.8658 130.395L5.86385 130.394C-1.95467 122.574 -1.95457 109.877 5.86385 102.057H5.8658C9.62325 98.298 14.7203 96.1876 20.0328 96.1875ZM17.9576 100.475C14.5101 100.929 11.2854 102.505 8.80037 104.99C2.60055 111.191 2.6009 121.258 8.79939 127.459C15.0005 133.658 25.0673 133.658 31.2672 127.459V127.458C33.7535 124.973 35.3308 121.748 35.7847 118.301H20.0328C18.8864 118.301 17.9577 117.372 17.9576 116.226V100.475Z" fill="white"/>
<path d="M26.5424 68.43C27.197 68.0867 27.9805 68.0867 28.6029 68.4408C44.5304 77.8029 57.198 90.7963 67.0795 106.911C67.4508 107.535 67.4505 108.319 67.1264 108.969C66.7744 109.649 66.1218 110.051 65.3686 110.078L26.0805 111.592C25.501 111.614 24.9429 111.431 24.5502 111.01C24.0996 110.592 23.9043 110.018 23.9408 109.437L25.475 70.181C25.505 69.4255 25.8878 68.7735 26.5424 68.43ZM28.1586 107.366L41.6742 106.841C38.8133 102.005 34.3651 97.8159 28.6762 94.1078L28.1586 107.366ZM28.8627 89.3617C29.014 89.4094 29.1621 89.4739 29.3041 89.557C37.1145 94.4033 42.9806 100.018 46.2709 106.599C46.2811 106.62 46.2888 106.642 46.2982 106.662L52.4467 106.423C46.2575 96.7888 38.4065 89.1067 29.1029 83.1996L28.8627 89.3617ZM29.2709 78.9144C29.7052 78.8734 30.1532 78.9648 30.5434 79.2123C41.0858 85.7563 49.877 94.3672 56.6957 105.343C56.876 105.625 56.9754 105.936 57.0043 106.247L61.5932 106.07C53.0402 92.9237 42.4551 82.0868 29.4701 73.8343L29.2709 78.9144Z" fill="white"/>
<path d="M84.2725 58.8242C85.4175 58.8244 86.3476 59.7543 86.3477 60.8994C86.3477 62.0446 85.4176 62.9744 84.2725 62.9746H81.0928V84.5967C81.0927 85.7419 80.1628 86.6719 79.0176 86.6719C77.8724 86.6718 76.9424 85.7419 76.9424 84.5967V62.9746H69.9619V84.5986C69.9619 85.7439 69.032 86.6738 67.8867 86.6738C66.7415 86.6738 65.8116 85.7438 65.8115 84.5986V62.9746H59.4531V84.5986C59.4531 85.7439 58.5232 86.6738 57.3779 86.6738C56.2327 86.6738 55.3028 85.7438 55.3027 84.5986V62.9746H52.082C50.9368 62.9746 50.0068 62.0447 50.0068 60.8994C50.0069 59.7542 50.9368 58.8243 52.082 58.8242H84.2725ZM84.2725 52.2188C85.4176 52.219 86.3476 53.1488 86.3477 54.2939C86.3477 55.4391 85.4176 56.3689 84.2725 56.3691H52.082C50.9368 56.3691 50.0068 55.4392 50.0068 54.2939C50.0069 53.1487 50.9368 52.2188 52.082 52.2188H84.2725Z" fill="white"/>
</svg>
