<svg width="233" height="68" viewBox="0 0 233 68" fill="none" xmlns="http://www.w3.org/2000/svg">
<path d="M9.96875 47.7861C10.5389 47.7864 11.0008 48.2471 11.001 48.8164V56.71H18.9062C19.4766 56.71 19.9393 57.1708 19.9395 57.7402C19.9394 60.3792 18.8892 62.912 17.0186 64.7793C13.1281 68.6633 6.81007 68.6633 2.91895 64.7793H2.91797C-0.972492 60.8944 -0.972391 54.5861 2.91797 50.7012H2.91895C4.78865 48.834 7.32535 47.7861 9.96875 47.7861ZM57.5537 47.5146C60.1979 47.5147 62.7338 48.5633 64.6035 50.4307H64.6045C68.4948 54.3156 68.4949 60.623 64.6045 64.5078L64.6035 64.5088C60.7124 68.3923 54.3949 68.3926 50.5039 64.5088V64.5078C48.6337 62.6412 47.5832 60.1088 47.583 57.4697C47.583 56.9002 48.0458 56.4386 48.6162 56.4385H56.5205V48.5459C56.5205 47.9764 56.9833 47.5148 57.5537 47.5146ZM8.93555 49.915C7.22008 50.1406 5.61549 50.9246 4.37891 52.1592C1.29416 55.2399 1.29461 60.2407 4.37891 63.3213C7.36812 66.3041 12.1623 66.398 15.2637 63.6016L15.5586 63.3213C16.7957 62.0868 17.5797 60.4841 17.8057 58.7715H9.96875C9.39834 58.7715 8.93576 58.3097 8.93555 57.7402V49.915ZM58.5859 57.4697C58.5856 58.039 58.124 58.4999 57.5537 58.5H49.7168C49.9427 60.2127 50.7273 61.8152 51.9639 63.0498C55.0495 66.1296 60.0589 66.1289 63.1445 63.0498C66.2285 59.969 66.2284 54.9683 63.1436 51.8877C61.907 50.6531 60.3014 49.8701 58.5859 49.6445V57.4697ZM41.9336 29.2246C42.5033 29.2247 42.9657 29.6861 42.9658 30.2549C42.9656 30.8236 42.5033 31.2861 41.9336 31.2861H40.3516V42.0273C40.3514 42.596 39.8889 43.0584 39.3193 43.0586C38.7498 43.0583 38.2863 42.596 38.2861 42.0273V31.2861H34.8125V42.0283C34.8123 42.5971 34.3491 43.0596 33.7793 43.0596C33.21 43.059 32.7473 42.5968 32.7471 42.0283V31.2861H29.584V42.0283C29.5838 42.5971 29.1205 43.0596 28.5508 43.0596C27.9814 43.0591 27.5188 42.5968 27.5186 42.0283V31.2861H25.916C25.3465 31.2858 24.883 30.8235 24.8828 30.2549C24.883 29.6862 25.3465 29.2249 25.916 29.2246H41.9336ZM41.9336 25.9424C42.5034 25.9425 42.9658 26.4047 42.9658 26.9736C42.9654 27.5422 42.5031 28.0038 41.9336 28.0039H25.916C25.3467 28.0036 24.8833 27.542 24.8828 26.9736C24.8828 26.4048 25.3464 25.9427 25.916 25.9424H41.9336ZM2.91895 2.91309C6.81013 -0.970858 13.1281 -0.971068 17.0186 2.91309C18.8894 4.78041 19.9394 7.31298 19.9395 9.95215C19.9394 10.5217 19.4767 10.9833 18.9062 10.9834H11.001V18.876C11.001 19.4454 10.539 19.9069 9.96875 19.9072C7.32525 19.9072 4.78867 18.8585 2.91895 16.9912H2.91797C-0.972474 13.1063 -0.972469 6.79895 2.91797 2.91406L2.91895 2.91309ZM50.6748 2.91406C54.566 -0.970197 60.8833 -0.970197 64.7744 2.91406H64.7754C68.6658 6.79898 68.6659 13.1073 64.7754 16.9922C62.9057 18.8593 60.3686 19.9071 57.7246 19.9072C57.1544 19.9071 56.6918 19.4462 56.6914 18.877V10.9834H48.7871C48.2169 10.9833 47.7543 10.5224 47.7539 9.95312C47.7539 7.47887 48.6776 5.09845 50.334 3.27246L50.6748 2.91406ZM63.3145 4.37207C60.2288 1.29273 55.2204 1.29299 52.1348 4.37305C50.8984 5.60761 50.1126 7.2093 49.8867 8.92188H57.7246C58.295 8.92204 58.7568 9.3836 58.7568 9.95312V17.7783C60.4722 17.5528 62.0779 16.7686 63.3145 15.5342C66.3992 12.4535 66.3987 7.45274 63.3145 4.37207ZM15.5586 4.37109C12.4737 1.2918 7.46463 1.2921 4.37891 4.37109C1.29451 7.45182 1.29386 12.4534 4.37891 15.5342C5.61545 16.7687 7.22017 17.5518 8.93555 17.7773V9.95215C8.93563 9.38259 9.39826 8.9209 9.96875 8.9209H17.8057C17.5797 7.20847 16.7956 5.60653 15.5586 4.37207V4.37109Z" fill="#D9D9D9"/>
<path fill-rule="evenodd" clip-rule="evenodd" d="M53.0995 33.9822C53.4034 33.7903 53.797 33.7729 54.119 33.9441C54.4408 34.1154 54.6631 34.4472 54.6669 34.8249L55.4296 54.3464C55.4467 54.6222 55.3186 54.8998 55.1171 55.1052C54.9298 55.296 54.6389 55.4156 54.3622 55.4041L34.8095 54.6384C34.4453 54.6275 34.1222 54.4262 33.9442 54.1082C33.7666 53.7902 33.7777 53.3976 33.9638 53.0906C38.6182 45.1779 45.08 38.8894 53.0995 33.9822ZM53.0663 46.7205C50.714 48.125 48.6687 50.2824 46.8339 53.0378L53.3212 53.2908L53.0663 46.7205ZM52.8593 41.365C48.1217 44.4065 44.3358 48.2555 41.3905 52.8269L44.4433 52.9451C44.4595 52.9111 44.4776 52.8772 44.498 52.8445C46.9057 48.9531 49.7163 46.0603 52.9765 44.4138L52.8593 41.365ZM52.6747 36.6765C46.1343 40.9292 40.7252 46.2041 36.6532 52.6423L39.1356 52.738C39.1483 52.5779 39.1986 52.418 39.2899 52.2712C42.5436 47.0188 46.8261 42.6566 52.2978 39.2869C52.4457 39.1909 52.6085 39.1398 52.7714 39.1287L52.6747 36.6765Z" fill="url(#paint0_linear_4789_157)"/>
<path fill-rule="evenodd" clip-rule="evenodd" d="M32.5271 12.6983C32.8979 12.7159 33.226 12.9113 33.3874 13.2423C33.5761 13.5733 33.5721 13.9574 33.363 14.2706C28.4556 22.2715 22.1626 28.722 14.2263 33.3848C13.9086 33.5596 13.5239 33.5556 13.196 33.3878C12.8955 33.22 12.6785 32.8881 12.6687 32.5176L11.9128 13.002C11.9021 12.7138 12.0152 12.4403 12.196 12.2364C12.4042 12.0329 12.6801 11.9267 12.9821 11.9298L32.5271 12.6983ZM28.3484 14.6036C28.3387 14.7663 28.2903 14.9287 28.1989 15.0772C24.8162 20.5288 20.4291 24.8176 15.1872 28.0684C14.9969 28.1885 14.78 28.2353 14.5691 28.2178L14.6667 30.7003C21.1266 26.6118 26.4053 21.2078 30.6511 14.6954L28.3484 14.6036ZM23.0915 14.3965C23.075 14.4761 23.0503 14.5549 23.0144 14.6309C21.3584 17.9058 18.4575 20.688 14.571 23.1026C14.5073 23.1406 14.4408 23.1707 14.3737 23.1944L14.486 26.0841C19.131 23.1184 23.0415 19.3065 26.113 14.5157L23.0915 14.3965ZM14.2819 20.8341C17.1784 18.9348 19.4358 16.7835 20.8337 14.3077L14.0183 14.0391L14.2819 20.8341Z" fill="url(#paint1_linear_4789_157)"/>
<path fill-rule="evenodd" clip-rule="evenodd" d="M54.5323 11.9898C54.8256 11.9651 55.1029 12.0721 55.3047 12.2799C55.5065 12.4876 55.6189 12.7526 55.5997 13.0592L54.8477 32.568C54.8274 32.9331 54.6179 33.2518 54.3077 33.4371C53.9829 33.6076 53.5722 33.6006 53.2676 33.4059C45.2441 28.502 38.7938 22.2185 34.126 14.2955C33.9405 13.9857 33.9462 13.6058 34.1124 13.2721C34.293 12.9532 34.6182 12.7538 34.9844 12.7447L54.5323 11.9898ZM36.8292 14.732C40.9044 21.1838 46.3155 26.4571 52.8555 30.6949L52.9434 28.4361C52.7695 28.4305 52.5956 28.3835 52.4395 28.2906C46.9849 24.9029 42.6877 20.5385 39.4434 15.2984C39.3079 15.095 39.2593 14.8604 39.2872 14.6354L36.8292 14.732ZM41.4053 14.5523C44.3759 19.2144 48.1948 23.1328 53.0294 26.2203L53.1514 23.1041C49.8882 21.459 47.0816 18.5678 44.6846 14.6773C44.6355 14.5975 44.5992 14.5136 44.5733 14.4283L41.4053 14.5523ZM46.9092 14.3375C48.7578 17.1621 50.8455 19.3829 53.2413 20.8033L53.5049 14.0797L46.9092 14.3375Z" fill="url(#paint2_linear_4789_157)"/>
<path fill-rule="evenodd" clip-rule="evenodd" d="M13.2092 33.9967C13.5349 33.826 13.9248 33.8256 14.2346 34.0015C22.1599 38.6522 28.4625 45.1075 33.3791 53.1129C33.5638 53.4232 33.5638 53.8122 33.4025 54.1353C33.2274 54.4732 32.9032 54.6731 32.5285 54.6871L12.9787 55.44C12.6905 55.4507 12.4124 55.3597 12.217 55.151C11.9927 54.943 11.8951 54.6577 11.9133 54.3687L12.6779 34.8668C12.6929 34.4915 12.8835 34.1673 13.2092 33.9967ZM14.0119 53.3404L20.7336 53.0787C19.31 50.6768 17.1001 48.5943 14.2697 46.7525L14.0119 53.3404ZM14.3625 44.3951C14.438 44.4188 14.5124 44.4504 14.5832 44.4918C18.4695 46.8993 21.3885 49.6884 23.0256 52.9576C23.0307 52.9681 23.0345 52.9792 23.0392 52.9898L26.0978 52.8707C23.0184 48.0845 19.1119 44.268 14.4826 41.3336L14.3625 44.3951ZM14.5666 39.2037C14.7824 39.1835 15.0046 39.2304 15.1984 39.3531C20.4444 42.604 24.8192 46.8815 28.2121 52.3346C28.3016 52.4744 28.351 52.6281 28.3654 52.7828L30.6496 52.6949C26.394 46.1642 21.1272 40.7807 14.6662 36.6812L14.5666 39.2037Z" fill="url(#paint3_linear_4789_157)"/>
<path d="M108.144 42.7179C108.144 46.3882 105.439 52.4731 97.0847 52.4731C90.4686 52.4731 86.2189 49.6238 85.2047 42.3799H86.7984C87.8608 48.996 93.3662 50.4448 96.5535 50.4448C102.204 50.4448 103.556 46.4847 103.556 44.7462C103.556 41.0277 100.514 38.9994 94.7184 36.0052C91.0481 34.1218 84.8184 31.031 84.8184 24.9944C84.8184 17.3159 92.4003 15.7705 95.1047 15.7705C101.866 15.7705 104.667 19.3442 105.633 24.4149H103.894C103.17 21.7588 101.238 17.7505 95.153 17.7505C92.1589 17.7505 88.9715 20.1652 88.9715 23.2076C88.9715 26.7813 93.2696 29.051 97.7125 31.3208C106.115 35.5223 108.144 38.5164 108.144 42.7179Z" fill="white"/>
<path d="M118.297 51.8452H113.468V16.4949H118.297V51.8452Z" fill="white"/>
<path d="M153.876 34.1701C153.876 52.6662 134.8 51.8452 134.365 51.8452H123.113V16.4949H134.365C134.8 16.5432 153.876 15.3842 153.876 34.1701ZM147.984 34.1701C147.936 18.2334 136.683 18.2334 134.365 18.2334H128.425V50.0101H134.365C136.2 50.0101 148.032 49.9618 147.984 34.1701Z" fill="white"/>
<path d="M196.29 51.797L196.096 51.8452H190.929L186.728 27.6023L173.592 51.8452L161.567 29.1959L158.959 51.8452H156.786L160.843 16.4949L175.282 43.9252L190.205 16.4949L196.29 51.797Z" fill="white"/>
<path d="M202.54 51.8452H200.174L216.014 16.4949L232.241 51.8452H226.397L223.355 45.1808H205.535L202.54 51.8452ZM214.324 25.574L206.356 43.3457H222.485L214.324 25.574Z" fill="white"/>
<defs>
<linearGradient id="paint0_linear_4789_157" x1="57.5551" y1="57.3737" x2="42.8703" y2="42.9551" gradientUnits="userSpaceOnUse">
<stop stop-color="#0C1657"/>
<stop offset="1" stop-color="#00BF90"/>
</linearGradient>
<linearGradient id="paint1_linear_4789_157" x1="10.522" y1="10.2823" x2="24.0937" y2="24.1663" gradientUnits="userSpaceOnUse">
<stop stop-color="#0C1657"/>
<stop offset="1" stop-color="#00BF90"/>
</linearGradient>
<linearGradient id="paint2_linear_4789_157" x1="58.0596" y1="9.99038" x2="43.2166" y2="24.4084" gradientUnits="userSpaceOnUse">
<stop stop-color="#0C1657"/>
<stop offset="1" stop-color="#00BF90"/>
</linearGradient>
<linearGradient id="paint3_linear_4789_157" x1="10.0018" y1="57.8326" x2="23.8622" y2="42.8821" gradientUnits="userSpaceOnUse">
<stop stop-color="#0C1657"/>
<stop offset="1" stop-color="#00BF90"/>
</linearGradient>
</defs>
</svg>
